<?xml version="1.0" encoding="UTF-8"?>
<svg xmlns="http://www.w3.org/2000/svg" xmlns:xlink="http://www.w3.org/1999/xlink" width="512" height="512" viewBox="0 0 52 56" version="1.1"><!-- Generator: Sketch 51.3 (57544) - http://www.bohemiancoding.com/sketch --><title>015 - Still</title><desc>Created with Sketch.</desc><defs/><g id="Page-1" stroke="none" stroke-width="1" fill="none" fill-rule="evenodd"><g id="015---Still" fill="#aeaeae" fill-rule="nonzero"><path d="M27,46.142 L27,43.949 C26.67,43.979 26.338,44 26,44 C25.662,44 25.33,43.979 25,43.949 L25,46.142 C25.653223,45.9526597 26.346777,45.9526597 27,46.142 Z" id="Shape"/><path d="M27.763,22.155 L27.258,18.1 C27.1743873,17.4691099 26.6364066,16.9977243 26,16.9977243 C25.3635934,16.9977243 24.8256127,17.4691099 24.742,18.1 L24.237,22.152 C25.4032414,21.9452533 26.5967586,21.9452533 27.763,22.152 L27.763,22.155 Z" id="Shape"/><path d="M26,42 C30.9705627,42 35,37.9705627 35,33 C35,28.0294373 30.9705627,24 26,24 C21.0294373,24 17,28.0294373 17,33 C17.006061,37.9680501 21.0319499,41.993939 26,42 Z M26.98,39.2 C26.9691127,39.2626625 26.9488877,39.3233376 26.92,39.38 C26.9001045,39.4414651 26.8696488,39.4989925 26.83,39.55 C26.79,39.61 26.75,39.66 26.71,39.71 C26.616074,39.802531 26.5036026,39.8741036 26.38,39.92 C26.2597777,39.971241 26.1306773,39.99842 26,40 C25.9329301,39.9982939 25.8660796,39.9916089 25.8,39.98 C25.7373375,39.9691127 25.6766624,39.9488877 25.62,39.92 C25.5562619,39.8981446 25.4957271,39.8678773 25.44,39.83 L25.29,39.71 C25.25,39.66 25.21,39.61 25.17,39.55 C25.1303512,39.4989925 25.0998955,39.4414651 25.08,39.38 C25.0511123,39.3233376 25.0308873,39.2626625 25.02,39.2 C24.9933333,39.068 24.9933333,38.932 25.02,38.8 C25.0308873,38.7373375 25.0511123,38.6766624 25.08,38.62 C25.1018554,38.5562619 25.1321227,38.4957271 25.17,38.44 L25.29,38.29 L25.44,38.17 C25.4957271,38.1321227 25.5562619,38.1018554 25.62,38.08 C25.6766624,38.0511123 25.7373375,38.0308873 25.8,38.02 C25.9948642,37.9791133 26.1976321,38.0000893 26.38,38.08 C26.5023813,38.128323 26.6143929,38.1996032 26.71,38.29 L26.83,38.44 C26.8678773,38.4957271 26.8981446,38.5562619 26.92,38.62 C26.9488877,38.6766624 26.9691127,38.7373375 26.98,38.8 C27.0066667,38.932 27.0066667,39.068 26.98,39.2 Z M27,35 C27,35.5522847 26.5522847,36 26,36 C25.4477153,36 25,35.5522847 25,35 L25,31 C25,30.4477153 25.4477153,30 26,30 C26.5522847,30 27,30.4477153 27,31 L27,35 Z M19,33 C19,29.1340068 22.1340068,26 26,26 C29.8659932,26 33,29.1340068 33,33 C33,33.5522847 32.5522847,34 32,34 C31.4477153,34 31,33.5522847 31,33 C31,30.2385763 28.7614237,28 26,28 C23.2385763,28 21,30.2385763 21,33 C21,33.5522847 20.5522847,34 20,34 C19.4477153,34 19,33.5522847 19,33 Z" id="Shape"/><path d="M2.282,11.917 L2.67,12.05 C3.36928621,12.3055112 4.02987705,12.6565027 4.633,13.093 C5.1196854,13.4488972 5.57683766,13.8435129 6,14.273 L6,11 L0.727,11 C0.851905608,11.1567719 0.996037201,11.2972078 1.156,11.418 C1.50424721,11.6397441 1.88381024,11.8079519 2.282,11.917 Z" id="Shape"/><circle id="Oval" cx="26" cy="50" r="2"/><path d="M32.2,0.438 C31.8442497,0.154539444 31.4028716,0.000127606212 30.948,0 L21.048,0 C20.5941575,0.000805570511 20.1539453,0.155179416 19.799,0.438 L17.85,2 L34.15,2 L32.2,0.438 Z" id="Shape"/><path d="M46,14.273 C46.4233754,13.8437405 46.8805086,13.4491412 47.367,13.093 C47.9703444,12.6562796 48.6312972,12.3052746 49.331,12.05 L49.718,11.917 C50.1162467,11.8076398 50.4958126,11.6390937 50.844,11.417 C51.0036773,11.2962559 51.1477755,11.1561884 51.273,11 L46,11 L46,14.273 Z" id="Shape"/><path d="M45,6 L46.586,6 L44.879,4.293 C44.6915073,4.10545063 44.4371948,4.00005664 44.172,4 L7.828,4 C7.56280519,4.00005664 7.30849273,4.10545063 7.121,4.293 L5.414,6 L45,6 Z" id="Shape"/><path d="M26,56 C34.514,56 44,53.125 44,49 L44,8 L8,8 L8,49 C8,53.125 17.486,56 26,56 Z M16,10 L37,10 C37.5522847,10 38,10.4477153 38,11 C38,11.5522847 37.5522847,12 37,12 L16,12 C15.4477153,12 15,11.5522847 15,11 C15,10.4477153 15.4477153,10 16,10 Z M22.153,22.708 L22.758,17.856 C22.9651915,16.2232948 24.354201,14.9994122 26,14.9994122 C27.645799,14.9994122 29.0348085,16.2232948 29.242,17.856 L29.847,22.707 C34.3012696,24.364681 37.1843134,28.6988728 36.9915569,33.4476905 C36.7988005,38.1965082 33.5739668,42.2827788 29,43.574 L29,47.382 C30.4182283,48.9901197 30.3162204,51.4304851 28.7687343,52.9146372 C27.2212482,54.3987893 24.7787518,54.3987893 23.2312657,52.9146372 C21.6837796,51.4304851 21.5817717,48.9901197 23,47.382 L23,43.574 C18.4267902,42.282279 15.2027132,38.1963683 15.0099715,33.4481432 C14.8172299,28.6999181 17.6995318,24.3661351 22.153,22.708 Z M11,10 L12,10 C12.5522847,10 13,10.4477153 13,11 C13,11.5522847 12.5522847,12 12,12 L11,12 C10.4477153,12 10,11.5522847 10,11 C10,10.4477153 10.4477153,10 11,10 Z" id="Shape"/></g></g></svg>
